<mxfile host="app.diagrams.net" modified="2023-12-03T09:51:23.774Z" agent="Mozilla/5.0 (Windows NT 10.0; Win64; x64) AppleWebKit/537.36 (KHTML, like Gecko) Chrome/118.0.0.0 Safari/537.36 OPR/104.0.0.0 (Edition Yx GX)" etag="JRwxrY8pr0gg1BZrnrhi" version="22.1.5" type="device">
  <diagram name="Страница — 1" id="F2oGzrSmY1CSMZ3-XRhw">
    <mxGraphModel dx="1715" dy="1046" grid="1" gridSize="10" guides="1" tooltips="1" connect="1" arrows="1" fold="1" page="1" pageScale="1" pageWidth="827" pageHeight="1169" math="0" shadow="0">
      <root>
        <mxCell id="0" />
        <mxCell id="1" parent="0" />
        <mxCell id="49SuMXLKN1Yx0tCa4ZDj-3" value="" style="edgeStyle=orthogonalEdgeStyle;rounded=0;orthogonalLoop=1;jettySize=auto;html=1;" edge="1" parent="1" source="49SuMXLKN1Yx0tCa4ZDj-1" target="49SuMXLKN1Yx0tCa4ZDj-2">
          <mxGeometry relative="1" as="geometry" />
        </mxCell>
        <mxCell id="49SuMXLKN1Yx0tCa4ZDj-1" value="Начало" style="rounded=1;whiteSpace=wrap;html=1;" vertex="1" parent="1">
          <mxGeometry x="354" y="60" width="120" height="40" as="geometry" />
        </mxCell>
        <mxCell id="49SuMXLKN1Yx0tCa4ZDj-5" value="" style="edgeStyle=orthogonalEdgeStyle;rounded=0;orthogonalLoop=1;jettySize=auto;html=1;" edge="1" parent="1" source="49SuMXLKN1Yx0tCa4ZDj-2" target="49SuMXLKN1Yx0tCa4ZDj-4">
          <mxGeometry relative="1" as="geometry" />
        </mxCell>
        <mxCell id="49SuMXLKN1Yx0tCa4ZDj-2" value="Поступило обращение гражданина" style="rounded=0;whiteSpace=wrap;html=1;" vertex="1" parent="1">
          <mxGeometry x="354" y="130" width="120" height="60" as="geometry" />
        </mxCell>
        <mxCell id="49SuMXLKN1Yx0tCa4ZDj-7" value="" style="edgeStyle=orthogonalEdgeStyle;rounded=0;orthogonalLoop=1;jettySize=auto;html=1;" edge="1" parent="1" source="49SuMXLKN1Yx0tCa4ZDj-4" target="49SuMXLKN1Yx0tCa4ZDj-6">
          <mxGeometry relative="1" as="geometry" />
        </mxCell>
        <mxCell id="49SuMXLKN1Yx0tCa4ZDj-4" value="Зарегестрировать пациента" style="whiteSpace=wrap;html=1;rounded=0;" vertex="1" parent="1">
          <mxGeometry x="354" y="210" width="120" height="60" as="geometry" />
        </mxCell>
        <mxCell id="49SuMXLKN1Yx0tCa4ZDj-9" value="" style="edgeStyle=orthogonalEdgeStyle;rounded=0;orthogonalLoop=1;jettySize=auto;html=1;" edge="1" parent="1" source="49SuMXLKN1Yx0tCa4ZDj-6" target="49SuMXLKN1Yx0tCa4ZDj-8">
          <mxGeometry relative="1" as="geometry" />
        </mxCell>
        <mxCell id="49SuMXLKN1Yx0tCa4ZDj-6" value="Принять пациента" style="whiteSpace=wrap;html=1;rounded=0;" vertex="1" parent="1">
          <mxGeometry x="354" y="290" width="120" height="60" as="geometry" />
        </mxCell>
        <mxCell id="49SuMXLKN1Yx0tCa4ZDj-11" value="" style="edgeStyle=orthogonalEdgeStyle;rounded=0;orthogonalLoop=1;jettySize=auto;html=1;" edge="1" parent="1" source="49SuMXLKN1Yx0tCa4ZDj-8" target="49SuMXLKN1Yx0tCa4ZDj-10">
          <mxGeometry relative="1" as="geometry" />
        </mxCell>
        <mxCell id="49SuMXLKN1Yx0tCa4ZDj-8" value="Принять оплату" style="whiteSpace=wrap;html=1;rounded=0;" vertex="1" parent="1">
          <mxGeometry x="354" y="370" width="120" height="60" as="geometry" />
        </mxCell>
        <mxCell id="49SuMXLKN1Yx0tCa4ZDj-13" value="" style="edgeStyle=orthogonalEdgeStyle;rounded=0;orthogonalLoop=1;jettySize=auto;html=1;" edge="1" parent="1" source="49SuMXLKN1Yx0tCa4ZDj-10" target="49SuMXLKN1Yx0tCa4ZDj-12">
          <mxGeometry relative="1" as="geometry" />
        </mxCell>
        <mxCell id="49SuMXLKN1Yx0tCa4ZDj-10" value="Обращение гражданина было обработано" style="whiteSpace=wrap;html=1;rounded=0;" vertex="1" parent="1">
          <mxGeometry x="354" y="450" width="120" height="60" as="geometry" />
        </mxCell>
        <mxCell id="49SuMXLKN1Yx0tCa4ZDj-12" value="Конец" style="rounded=1;whiteSpace=wrap;html=1;" vertex="1" parent="1">
          <mxGeometry x="354" y="545" width="120" height="40" as="geometry" />
        </mxCell>
        <mxCell id="49SuMXLKN1Yx0tCa4ZDj-16" value="" style="edgeStyle=orthogonalEdgeStyle;rounded=0;orthogonalLoop=1;jettySize=auto;html=1;" edge="1" parent="1" source="49SuMXLKN1Yx0tCa4ZDj-14" target="49SuMXLKN1Yx0tCa4ZDj-15">
          <mxGeometry relative="1" as="geometry" />
        </mxCell>
        <mxCell id="49SuMXLKN1Yx0tCa4ZDj-14" value="Начало" style="rounded=1;whiteSpace=wrap;html=1;" vertex="1" parent="1">
          <mxGeometry x="354" y="670" width="120" height="40" as="geometry" />
        </mxCell>
        <mxCell id="49SuMXLKN1Yx0tCa4ZDj-18" value="" style="edgeStyle=orthogonalEdgeStyle;rounded=0;orthogonalLoop=1;jettySize=auto;html=1;" edge="1" parent="1" source="49SuMXLKN1Yx0tCa4ZDj-15" target="49SuMXLKN1Yx0tCa4ZDj-17">
          <mxGeometry relative="1" as="geometry" />
        </mxCell>
        <mxCell id="49SuMXLKN1Yx0tCa4ZDj-15" value="Поступило обращение в регистратуру" style="rounded=0;whiteSpace=wrap;html=1;" vertex="1" parent="1">
          <mxGeometry x="354" y="730" width="120" height="60" as="geometry" />
        </mxCell>
        <mxCell id="49SuMXLKN1Yx0tCa4ZDj-20" value="" style="edgeStyle=orthogonalEdgeStyle;rounded=0;orthogonalLoop=1;jettySize=auto;html=1;" edge="1" parent="1" source="49SuMXLKN1Yx0tCa4ZDj-17" target="49SuMXLKN1Yx0tCa4ZDj-19">
          <mxGeometry relative="1" as="geometry" />
        </mxCell>
        <mxCell id="49SuMXLKN1Yx0tCa4ZDj-17" value="Получить паспортные данные пациента" style="whiteSpace=wrap;html=1;rounded=0;" vertex="1" parent="1">
          <mxGeometry x="354" y="810" width="120" height="60" as="geometry" />
        </mxCell>
        <mxCell id="49SuMXLKN1Yx0tCa4ZDj-22" value="" style="edgeStyle=orthogonalEdgeStyle;rounded=0;orthogonalLoop=1;jettySize=auto;html=1;" edge="1" parent="1" source="49SuMXLKN1Yx0tCa4ZDj-19" target="49SuMXLKN1Yx0tCa4ZDj-21">
          <mxGeometry relative="1" as="geometry" />
        </mxCell>
        <mxCell id="49SuMXLKN1Yx0tCa4ZDj-19" value="Запросить данные об пациенте в системе" style="whiteSpace=wrap;html=1;rounded=0;" vertex="1" parent="1">
          <mxGeometry x="354" y="890" width="120" height="60" as="geometry" />
        </mxCell>
        <mxCell id="49SuMXLKN1Yx0tCa4ZDj-24" style="edgeStyle=orthogonalEdgeStyle;rounded=0;orthogonalLoop=1;jettySize=auto;html=1;entryX=0.5;entryY=0;entryDx=0;entryDy=0;" edge="1" parent="1" source="49SuMXLKN1Yx0tCa4ZDj-21" target="49SuMXLKN1Yx0tCa4ZDj-23">
          <mxGeometry relative="1" as="geometry">
            <Array as="points">
              <mxPoint x="280" y="1010" />
              <mxPoint x="280" y="1079" />
            </Array>
          </mxGeometry>
        </mxCell>
        <mxCell id="49SuMXLKN1Yx0tCa4ZDj-25" value="Да" style="edgeLabel;html=1;align=center;verticalAlign=middle;resizable=0;points=[];" vertex="1" connectable="0" parent="49SuMXLKN1Yx0tCa4ZDj-24">
          <mxGeometry x="-0.6034" y="2" relative="1" as="geometry">
            <mxPoint as="offset" />
          </mxGeometry>
        </mxCell>
        <mxCell id="49SuMXLKN1Yx0tCa4ZDj-27" value="" style="edgeStyle=orthogonalEdgeStyle;rounded=0;orthogonalLoop=1;jettySize=auto;html=1;" edge="1" parent="1" source="49SuMXLKN1Yx0tCa4ZDj-21" target="49SuMXLKN1Yx0tCa4ZDj-26">
          <mxGeometry relative="1" as="geometry" />
        </mxCell>
        <mxCell id="49SuMXLKN1Yx0tCa4ZDj-28" value="Нет" style="edgeLabel;html=1;align=center;verticalAlign=middle;resizable=0;points=[];" vertex="1" connectable="0" parent="49SuMXLKN1Yx0tCa4ZDj-27">
          <mxGeometry x="-0.6742" y="1" relative="1" as="geometry">
            <mxPoint as="offset" />
          </mxGeometry>
        </mxCell>
        <mxCell id="49SuMXLKN1Yx0tCa4ZDj-21" value="Данные о пациенте есть в системе" style="rhombus;whiteSpace=wrap;html=1;rounded=0;" vertex="1" parent="1">
          <mxGeometry x="341" y="970" width="146" height="80" as="geometry" />
        </mxCell>
        <mxCell id="49SuMXLKN1Yx0tCa4ZDj-31" value="" style="edgeStyle=orthogonalEdgeStyle;rounded=0;orthogonalLoop=1;jettySize=auto;html=1;" edge="1" parent="1" source="49SuMXLKN1Yx0tCa4ZDj-23" target="49SuMXLKN1Yx0tCa4ZDj-30">
          <mxGeometry relative="1" as="geometry" />
        </mxCell>
        <mxCell id="49SuMXLKN1Yx0tCa4ZDj-23" value="Получить уникальный идентификатор пациента" style="rounded=0;whiteSpace=wrap;html=1;" vertex="1" parent="1">
          <mxGeometry x="219" y="1079" width="120" height="60" as="geometry" />
        </mxCell>
        <mxCell id="49SuMXLKN1Yx0tCa4ZDj-29" style="edgeStyle=orthogonalEdgeStyle;rounded=0;orthogonalLoop=1;jettySize=auto;html=1;entryX=0.5;entryY=0;entryDx=0;entryDy=0;" edge="1" parent="1" source="49SuMXLKN1Yx0tCa4ZDj-26" target="49SuMXLKN1Yx0tCa4ZDj-19">
          <mxGeometry relative="1" as="geometry">
            <Array as="points">
              <mxPoint x="670" y="1109" />
              <mxPoint x="670" y="880" />
              <mxPoint x="414" y="880" />
            </Array>
          </mxGeometry>
        </mxCell>
        <mxCell id="49SuMXLKN1Yx0tCa4ZDj-26" value="Записать пациента в систему" style="whiteSpace=wrap;html=1;rounded=0;" vertex="1" parent="1">
          <mxGeometry x="510" y="1079" width="120" height="60" as="geometry" />
        </mxCell>
        <mxCell id="49SuMXLKN1Yx0tCa4ZDj-33" value="" style="edgeStyle=orthogonalEdgeStyle;rounded=0;orthogonalLoop=1;jettySize=auto;html=1;" edge="1" parent="1" source="49SuMXLKN1Yx0tCa4ZDj-30" target="49SuMXLKN1Yx0tCa4ZDj-32">
          <mxGeometry relative="1" as="geometry" />
        </mxCell>
        <mxCell id="49SuMXLKN1Yx0tCa4ZDj-30" value="Оформить запись пациента к врачу" style="whiteSpace=wrap;html=1;rounded=0;" vertex="1" parent="1">
          <mxGeometry x="219" y="1160" width="120" height="60" as="geometry" />
        </mxCell>
        <mxCell id="49SuMXLKN1Yx0tCa4ZDj-35" value="" style="edgeStyle=orthogonalEdgeStyle;rounded=0;orthogonalLoop=1;jettySize=auto;html=1;" edge="1" parent="1" source="49SuMXLKN1Yx0tCa4ZDj-32" target="49SuMXLKN1Yx0tCa4ZDj-34">
          <mxGeometry relative="1" as="geometry" />
        </mxCell>
        <mxCell id="49SuMXLKN1Yx0tCa4ZDj-32" value="Сформировать талон" style="whiteSpace=wrap;html=1;rounded=0;" vertex="1" parent="1">
          <mxGeometry x="219" y="1240" width="120" height="60" as="geometry" />
        </mxCell>
        <mxCell id="49SuMXLKN1Yx0tCa4ZDj-37" value="" style="edgeStyle=orthogonalEdgeStyle;rounded=0;orthogonalLoop=1;jettySize=auto;html=1;" edge="1" parent="1" source="49SuMXLKN1Yx0tCa4ZDj-34" target="49SuMXLKN1Yx0tCa4ZDj-36">
          <mxGeometry relative="1" as="geometry" />
        </mxCell>
        <mxCell id="49SuMXLKN1Yx0tCa4ZDj-34" value="Передать талон&amp;nbsp;" style="whiteSpace=wrap;html=1;rounded=0;" vertex="1" parent="1">
          <mxGeometry x="219" y="1320" width="120" height="60" as="geometry" />
        </mxCell>
        <mxCell id="49SuMXLKN1Yx0tCa4ZDj-39" value="" style="edgeStyle=orthogonalEdgeStyle;rounded=0;orthogonalLoop=1;jettySize=auto;html=1;" edge="1" parent="1" source="49SuMXLKN1Yx0tCa4ZDj-36" target="49SuMXLKN1Yx0tCa4ZDj-38">
          <mxGeometry relative="1" as="geometry" />
        </mxCell>
        <mxCell id="49SuMXLKN1Yx0tCa4ZDj-36" value="Осведомить пациента о правилах прием и времени" style="whiteSpace=wrap;html=1;rounded=0;" vertex="1" parent="1">
          <mxGeometry x="219" y="1410" width="120" height="60" as="geometry" />
        </mxCell>
        <mxCell id="49SuMXLKN1Yx0tCa4ZDj-41" value="" style="edgeStyle=orthogonalEdgeStyle;rounded=0;orthogonalLoop=1;jettySize=auto;html=1;" edge="1" parent="1" source="49SuMXLKN1Yx0tCa4ZDj-38" target="49SuMXLKN1Yx0tCa4ZDj-40">
          <mxGeometry relative="1" as="geometry" />
        </mxCell>
        <mxCell id="49SuMXLKN1Yx0tCa4ZDj-38" value="Пациент был зарегестрирован" style="whiteSpace=wrap;html=1;rounded=0;" vertex="1" parent="1">
          <mxGeometry x="219" y="1490" width="120" height="60" as="geometry" />
        </mxCell>
        <mxCell id="49SuMXLKN1Yx0tCa4ZDj-40" value="Конец" style="rounded=1;whiteSpace=wrap;html=1;" vertex="1" parent="1">
          <mxGeometry x="219" y="1570" width="120" height="40" as="geometry" />
        </mxCell>
        <mxCell id="49SuMXLKN1Yx0tCa4ZDj-44" value="" style="edgeStyle=orthogonalEdgeStyle;rounded=0;orthogonalLoop=1;jettySize=auto;html=1;" edge="1" parent="1" source="49SuMXLKN1Yx0tCa4ZDj-42" target="49SuMXLKN1Yx0tCa4ZDj-43">
          <mxGeometry relative="1" as="geometry" />
        </mxCell>
        <mxCell id="49SuMXLKN1Yx0tCa4ZDj-42" value="Начало" style="rounded=1;whiteSpace=wrap;html=1;" vertex="1" parent="1">
          <mxGeometry x="341" y="1660" width="120" height="40" as="geometry" />
        </mxCell>
        <mxCell id="49SuMXLKN1Yx0tCa4ZDj-46" value="" style="edgeStyle=orthogonalEdgeStyle;rounded=0;orthogonalLoop=1;jettySize=auto;html=1;" edge="1" parent="1" source="49SuMXLKN1Yx0tCa4ZDj-43" target="49SuMXLKN1Yx0tCa4ZDj-45">
          <mxGeometry relative="1" as="geometry" />
        </mxCell>
        <mxCell id="49SuMXLKN1Yx0tCa4ZDj-43" value="Пациент был зарегестрирован" style="whiteSpace=wrap;html=1;rounded=0;" vertex="1" parent="1">
          <mxGeometry x="341" y="1730" width="120" height="60" as="geometry" />
        </mxCell>
        <mxCell id="49SuMXLKN1Yx0tCa4ZDj-48" value="" style="edgeStyle=orthogonalEdgeStyle;rounded=0;orthogonalLoop=1;jettySize=auto;html=1;" edge="1" parent="1" source="49SuMXLKN1Yx0tCa4ZDj-45" target="49SuMXLKN1Yx0tCa4ZDj-47">
          <mxGeometry relative="1" as="geometry" />
        </mxCell>
        <mxCell id="49SuMXLKN1Yx0tCa4ZDj-45" value="Устно опросить пациента" style="whiteSpace=wrap;html=1;rounded=0;" vertex="1" parent="1">
          <mxGeometry x="341" y="1820" width="120" height="60" as="geometry" />
        </mxCell>
        <mxCell id="49SuMXLKN1Yx0tCa4ZDj-50" value="" style="edgeStyle=orthogonalEdgeStyle;rounded=0;orthogonalLoop=1;jettySize=auto;html=1;" edge="1" parent="1" source="49SuMXLKN1Yx0tCa4ZDj-47" target="49SuMXLKN1Yx0tCa4ZDj-49">
          <mxGeometry relative="1" as="geometry" />
        </mxCell>
        <mxCell id="49SuMXLKN1Yx0tCa4ZDj-47" value="Осмотреть пациента" style="whiteSpace=wrap;html=1;rounded=0;" vertex="1" parent="1">
          <mxGeometry x="341" y="1900" width="120" height="60" as="geometry" />
        </mxCell>
        <mxCell id="49SuMXLKN1Yx0tCa4ZDj-54" value="" style="edgeStyle=orthogonalEdgeStyle;rounded=0;orthogonalLoop=1;jettySize=auto;html=1;" edge="1" parent="1" source="49SuMXLKN1Yx0tCa4ZDj-49" target="49SuMXLKN1Yx0tCa4ZDj-53">
          <mxGeometry relative="1" as="geometry" />
        </mxCell>
        <mxCell id="49SuMXLKN1Yx0tCa4ZDj-49" value="Продумать возможные пути лечения" style="whiteSpace=wrap;html=1;rounded=0;" vertex="1" parent="1">
          <mxGeometry x="341" y="1980" width="120" height="60" as="geometry" />
        </mxCell>
        <mxCell id="49SuMXLKN1Yx0tCa4ZDj-56" value="" style="edgeStyle=orthogonalEdgeStyle;rounded=0;orthogonalLoop=1;jettySize=auto;html=1;entryX=0.5;entryY=0;entryDx=0;entryDy=0;" edge="1" parent="1" source="49SuMXLKN1Yx0tCa4ZDj-53" target="49SuMXLKN1Yx0tCa4ZDj-55">
          <mxGeometry relative="1" as="geometry">
            <Array as="points">
              <mxPoint x="570" y="2100" />
            </Array>
          </mxGeometry>
        </mxCell>
        <mxCell id="49SuMXLKN1Yx0tCa4ZDj-61" value="Да" style="edgeLabel;html=1;align=center;verticalAlign=middle;resizable=0;points=[];" vertex="1" connectable="0" parent="49SuMXLKN1Yx0tCa4ZDj-56">
          <mxGeometry x="-0.3909" y="1" relative="1" as="geometry">
            <mxPoint as="offset" />
          </mxGeometry>
        </mxCell>
        <mxCell id="49SuMXLKN1Yx0tCa4ZDj-63" style="edgeStyle=orthogonalEdgeStyle;rounded=0;orthogonalLoop=1;jettySize=auto;html=1;" edge="1" parent="1" source="49SuMXLKN1Yx0tCa4ZDj-53" target="49SuMXLKN1Yx0tCa4ZDj-62">
          <mxGeometry relative="1" as="geometry" />
        </mxCell>
        <mxCell id="49SuMXLKN1Yx0tCa4ZDj-64" value="Нет" style="edgeLabel;html=1;align=center;verticalAlign=middle;resizable=0;points=[];" vertex="1" connectable="0" parent="49SuMXLKN1Yx0tCa4ZDj-63">
          <mxGeometry x="-0.2506" y="3" relative="1" as="geometry">
            <mxPoint as="offset" />
          </mxGeometry>
        </mxCell>
        <mxCell id="49SuMXLKN1Yx0tCa4ZDj-53" value="Пациенту необходимо дообследование" style="rhombus;whiteSpace=wrap;html=1;rounded=0;" vertex="1" parent="1">
          <mxGeometry x="327" y="2060" width="149" height="80" as="geometry" />
        </mxCell>
        <mxCell id="49SuMXLKN1Yx0tCa4ZDj-58" value="" style="edgeStyle=orthogonalEdgeStyle;rounded=0;orthogonalLoop=1;jettySize=auto;html=1;" edge="1" parent="1" source="49SuMXLKN1Yx0tCa4ZDj-55" target="49SuMXLKN1Yx0tCa4ZDj-57">
          <mxGeometry relative="1" as="geometry" />
        </mxCell>
        <mxCell id="49SuMXLKN1Yx0tCa4ZDj-55" value="Выписать направление на дообследование" style="whiteSpace=wrap;html=1;rounded=0;" vertex="1" parent="1">
          <mxGeometry x="510" y="2119" width="120" height="60" as="geometry" />
        </mxCell>
        <mxCell id="49SuMXLKN1Yx0tCa4ZDj-60" value="" style="edgeStyle=orthogonalEdgeStyle;rounded=0;orthogonalLoop=1;jettySize=auto;html=1;" edge="1" parent="1" source="49SuMXLKN1Yx0tCa4ZDj-57" target="49SuMXLKN1Yx0tCa4ZDj-59">
          <mxGeometry relative="1" as="geometry" />
        </mxCell>
        <mxCell id="49SuMXLKN1Yx0tCa4ZDj-57" value="Передать направление пациенту" style="whiteSpace=wrap;html=1;rounded=0;" vertex="1" parent="1">
          <mxGeometry x="510" y="2198" width="120" height="60" as="geometry" />
        </mxCell>
        <mxCell id="49SuMXLKN1Yx0tCa4ZDj-65" style="edgeStyle=orthogonalEdgeStyle;rounded=0;orthogonalLoop=1;jettySize=auto;html=1;exitX=0.5;exitY=1;exitDx=0;exitDy=0;" edge="1" parent="1" source="49SuMXLKN1Yx0tCa4ZDj-59" target="49SuMXLKN1Yx0tCa4ZDj-62">
          <mxGeometry relative="1" as="geometry" />
        </mxCell>
        <mxCell id="49SuMXLKN1Yx0tCa4ZDj-59" value="Внести данные в базу" style="whiteSpace=wrap;html=1;rounded=0;" vertex="1" parent="1">
          <mxGeometry x="510" y="2278" width="120" height="60" as="geometry" />
        </mxCell>
        <mxCell id="49SuMXLKN1Yx0tCa4ZDj-67" value="" style="edgeStyle=orthogonalEdgeStyle;rounded=0;orthogonalLoop=1;jettySize=auto;html=1;entryX=0.5;entryY=0;entryDx=0;entryDy=0;" edge="1" parent="1" source="49SuMXLKN1Yx0tCa4ZDj-62" target="49SuMXLKN1Yx0tCa4ZDj-66">
          <mxGeometry relative="1" as="geometry" />
        </mxCell>
        <mxCell id="49SuMXLKN1Yx0tCa4ZDj-72" value="Да" style="edgeLabel;html=1;align=center;verticalAlign=middle;resizable=0;points=[];" vertex="1" connectable="0" parent="49SuMXLKN1Yx0tCa4ZDj-67">
          <mxGeometry x="-0.3843" y="1" relative="1" as="geometry">
            <mxPoint as="offset" />
          </mxGeometry>
        </mxCell>
        <mxCell id="49SuMXLKN1Yx0tCa4ZDj-75" style="edgeStyle=orthogonalEdgeStyle;rounded=0;orthogonalLoop=1;jettySize=auto;html=1;entryX=0.5;entryY=0;entryDx=0;entryDy=0;" edge="1" parent="1" source="49SuMXLKN1Yx0tCa4ZDj-62" target="49SuMXLKN1Yx0tCa4ZDj-73">
          <mxGeometry relative="1" as="geometry" />
        </mxCell>
        <mxCell id="49SuMXLKN1Yx0tCa4ZDj-76" value="Нет" style="edgeLabel;html=1;align=center;verticalAlign=middle;resizable=0;points=[];" vertex="1" connectable="0" parent="49SuMXLKN1Yx0tCa4ZDj-75">
          <mxGeometry x="-0.8398" y="2" relative="1" as="geometry">
            <mxPoint as="offset" />
          </mxGeometry>
        </mxCell>
        <mxCell id="49SuMXLKN1Yx0tCa4ZDj-62" value="Пациенту необходимы медикаменты" style="rhombus;whiteSpace=wrap;html=1;rounded=0;" vertex="1" parent="1">
          <mxGeometry x="326.5" y="2400" width="149" height="80" as="geometry" />
        </mxCell>
        <mxCell id="49SuMXLKN1Yx0tCa4ZDj-69" value="" style="edgeStyle=orthogonalEdgeStyle;rounded=0;orthogonalLoop=1;jettySize=auto;html=1;" edge="1" parent="1" source="49SuMXLKN1Yx0tCa4ZDj-66" target="49SuMXLKN1Yx0tCa4ZDj-68">
          <mxGeometry relative="1" as="geometry" />
        </mxCell>
        <mxCell id="49SuMXLKN1Yx0tCa4ZDj-66" value="Выписать рецепт на необходимые мед. препараты" style="whiteSpace=wrap;html=1;rounded=0;" vertex="1" parent="1">
          <mxGeometry x="510" y="2480" width="120" height="60" as="geometry" />
        </mxCell>
        <mxCell id="49SuMXLKN1Yx0tCa4ZDj-71" value="" style="edgeStyle=orthogonalEdgeStyle;rounded=0;orthogonalLoop=1;jettySize=auto;html=1;" edge="1" parent="1" source="49SuMXLKN1Yx0tCa4ZDj-68" target="49SuMXLKN1Yx0tCa4ZDj-70">
          <mxGeometry relative="1" as="geometry" />
        </mxCell>
        <mxCell id="49SuMXLKN1Yx0tCa4ZDj-68" value="Передать направление пациенту" style="whiteSpace=wrap;html=1;rounded=0;" vertex="1" parent="1">
          <mxGeometry x="510" y="2560" width="120" height="60" as="geometry" />
        </mxCell>
        <mxCell id="49SuMXLKN1Yx0tCa4ZDj-74" style="edgeStyle=orthogonalEdgeStyle;rounded=0;orthogonalLoop=1;jettySize=auto;html=1;entryX=0.5;entryY=0;entryDx=0;entryDy=0;exitX=0.5;exitY=1;exitDx=0;exitDy=0;" edge="1" parent="1" source="49SuMXLKN1Yx0tCa4ZDj-70" target="49SuMXLKN1Yx0tCa4ZDj-73">
          <mxGeometry relative="1" as="geometry">
            <Array as="points">
              <mxPoint x="570" y="2720" />
              <mxPoint x="401" y="2720" />
            </Array>
          </mxGeometry>
        </mxCell>
        <mxCell id="49SuMXLKN1Yx0tCa4ZDj-70" value="Внести данные в базу" style="whiteSpace=wrap;html=1;rounded=0;" vertex="1" parent="1">
          <mxGeometry x="510" y="2640" width="120" height="60" as="geometry" />
        </mxCell>
        <mxCell id="49SuMXLKN1Yx0tCa4ZDj-78" value="" style="edgeStyle=orthogonalEdgeStyle;rounded=0;orthogonalLoop=1;jettySize=auto;html=1;" edge="1" parent="1" source="49SuMXLKN1Yx0tCa4ZDj-73" target="49SuMXLKN1Yx0tCa4ZDj-77">
          <mxGeometry relative="1" as="geometry" />
        </mxCell>
        <mxCell id="49SuMXLKN1Yx0tCa4ZDj-73" value="Произвести инструктаж пациента" style="rounded=0;whiteSpace=wrap;html=1;" vertex="1" parent="1">
          <mxGeometry x="341" y="2760" width="120" height="60" as="geometry" />
        </mxCell>
        <mxCell id="49SuMXLKN1Yx0tCa4ZDj-80" value="" style="edgeStyle=orthogonalEdgeStyle;rounded=0;orthogonalLoop=1;jettySize=auto;html=1;" edge="1" parent="1" source="49SuMXLKN1Yx0tCa4ZDj-77" target="49SuMXLKN1Yx0tCa4ZDj-79">
          <mxGeometry relative="1" as="geometry" />
        </mxCell>
        <mxCell id="49SuMXLKN1Yx0tCa4ZDj-77" value="Прием пациента был завершен" style="whiteSpace=wrap;html=1;rounded=0;" vertex="1" parent="1">
          <mxGeometry x="341.5" y="2840" width="120" height="60" as="geometry" />
        </mxCell>
        <mxCell id="49SuMXLKN1Yx0tCa4ZDj-79" value="Конец" style="rounded=1;whiteSpace=wrap;html=1;" vertex="1" parent="1">
          <mxGeometry x="341.5" y="2922.5" width="120" height="40" as="geometry" />
        </mxCell>
        <mxCell id="49SuMXLKN1Yx0tCa4ZDj-83" value="" style="edgeStyle=orthogonalEdgeStyle;rounded=0;orthogonalLoop=1;jettySize=auto;html=1;" edge="1" parent="1" source="49SuMXLKN1Yx0tCa4ZDj-81" target="49SuMXLKN1Yx0tCa4ZDj-82">
          <mxGeometry relative="1" as="geometry" />
        </mxCell>
        <mxCell id="49SuMXLKN1Yx0tCa4ZDj-81" value="Начало" style="rounded=1;whiteSpace=wrap;html=1;" vertex="1" parent="1">
          <mxGeometry x="341.5" y="3080" width="120" height="40" as="geometry" />
        </mxCell>
        <mxCell id="49SuMXLKN1Yx0tCa4ZDj-85" value="" style="edgeStyle=orthogonalEdgeStyle;rounded=0;orthogonalLoop=1;jettySize=auto;html=1;" edge="1" parent="1" source="49SuMXLKN1Yx0tCa4ZDj-82" target="49SuMXLKN1Yx0tCa4ZDj-84">
          <mxGeometry relative="1" as="geometry" />
        </mxCell>
        <mxCell id="49SuMXLKN1Yx0tCa4ZDj-82" value="Прием пациента был завершен" style="rounded=0;whiteSpace=wrap;html=1;" vertex="1" parent="1">
          <mxGeometry x="341.5" y="3150" width="120" height="60" as="geometry" />
        </mxCell>
        <mxCell id="49SuMXLKN1Yx0tCa4ZDj-87" value="" style="edgeStyle=orthogonalEdgeStyle;rounded=0;orthogonalLoop=1;jettySize=auto;html=1;" edge="1" parent="1" source="49SuMXLKN1Yx0tCa4ZDj-84" target="49SuMXLKN1Yx0tCa4ZDj-86">
          <mxGeometry relative="1" as="geometry" />
        </mxCell>
        <mxCell id="49SuMXLKN1Yx0tCa4ZDj-84" value="Получить данные о приеме из базы" style="whiteSpace=wrap;html=1;rounded=0;" vertex="1" parent="1">
          <mxGeometry x="341.5" y="3230" width="120" height="60" as="geometry" />
        </mxCell>
        <mxCell id="49SuMXLKN1Yx0tCa4ZDj-89" value="" style="edgeStyle=orthogonalEdgeStyle;rounded=0;orthogonalLoop=1;jettySize=auto;html=1;" edge="1" parent="1" source="49SuMXLKN1Yx0tCa4ZDj-86" target="49SuMXLKN1Yx0tCa4ZDj-88">
          <mxGeometry relative="1" as="geometry" />
        </mxCell>
        <mxCell id="49SuMXLKN1Yx0tCa4ZDj-86" value="Вычислить стоимость приема" style="whiteSpace=wrap;html=1;rounded=0;" vertex="1" parent="1">
          <mxGeometry x="341.5" y="3310" width="120" height="60" as="geometry" />
        </mxCell>
        <mxCell id="49SuMXLKN1Yx0tCa4ZDj-93" value="" style="edgeStyle=orthogonalEdgeStyle;rounded=0;orthogonalLoop=1;jettySize=auto;html=1;" edge="1" parent="1" source="49SuMXLKN1Yx0tCa4ZDj-88" target="49SuMXLKN1Yx0tCa4ZDj-92">
          <mxGeometry relative="1" as="geometry" />
        </mxCell>
        <mxCell id="49SuMXLKN1Yx0tCa4ZDj-88" value="Запросить информацию о типе оплаты" style="whiteSpace=wrap;html=1;rounded=0;" vertex="1" parent="1">
          <mxGeometry x="341.5" y="3390" width="120" height="60" as="geometry" />
        </mxCell>
        <mxCell id="49SuMXLKN1Yx0tCa4ZDj-95" value="" style="edgeStyle=orthogonalEdgeStyle;rounded=0;orthogonalLoop=1;jettySize=auto;html=1;entryX=0.5;entryY=0;entryDx=0;entryDy=0;" edge="1" parent="1" source="49SuMXLKN1Yx0tCa4ZDj-92" target="49SuMXLKN1Yx0tCa4ZDj-94">
          <mxGeometry relative="1" as="geometry" />
        </mxCell>
        <mxCell id="49SuMXLKN1Yx0tCa4ZDj-96" value="Да" style="edgeLabel;html=1;align=center;verticalAlign=middle;resizable=0;points=[];" vertex="1" connectable="0" parent="49SuMXLKN1Yx0tCa4ZDj-95">
          <mxGeometry x="-0.5292" y="2" relative="1" as="geometry">
            <mxPoint as="offset" />
          </mxGeometry>
        </mxCell>
        <mxCell id="49SuMXLKN1Yx0tCa4ZDj-98" value="" style="edgeStyle=orthogonalEdgeStyle;rounded=0;orthogonalLoop=1;jettySize=auto;html=1;entryX=0.5;entryY=0;entryDx=0;entryDy=0;" edge="1" parent="1" source="49SuMXLKN1Yx0tCa4ZDj-92" target="49SuMXLKN1Yx0tCa4ZDj-97">
          <mxGeometry relative="1" as="geometry" />
        </mxCell>
        <mxCell id="49SuMXLKN1Yx0tCa4ZDj-99" value="Нет" style="edgeLabel;html=1;align=center;verticalAlign=middle;resizable=0;points=[];" vertex="1" connectable="0" parent="49SuMXLKN1Yx0tCa4ZDj-98">
          <mxGeometry x="-0.583" y="-3" relative="1" as="geometry">
            <mxPoint as="offset" />
          </mxGeometry>
        </mxCell>
        <mxCell id="49SuMXLKN1Yx0tCa4ZDj-92" value="Выбрана оплата по карте" style="rhombus;whiteSpace=wrap;html=1;rounded=0;" vertex="1" parent="1">
          <mxGeometry x="342.5" y="3480" width="118.5" height="80" as="geometry" />
        </mxCell>
        <mxCell id="49SuMXLKN1Yx0tCa4ZDj-106" style="edgeStyle=orthogonalEdgeStyle;rounded=0;orthogonalLoop=1;jettySize=auto;html=1;entryX=0.5;entryY=0;entryDx=0;entryDy=0;" edge="1" parent="1" source="49SuMXLKN1Yx0tCa4ZDj-94" target="49SuMXLKN1Yx0tCa4ZDj-104">
          <mxGeometry relative="1" as="geometry">
            <Array as="points">
              <mxPoint x="570" y="3640" />
              <mxPoint x="399" y="3640" />
            </Array>
          </mxGeometry>
        </mxCell>
        <mxCell id="49SuMXLKN1Yx0tCa4ZDj-94" value="Провести оплату через терминал" style="whiteSpace=wrap;html=1;rounded=0;" vertex="1" parent="1">
          <mxGeometry x="510" y="3560" width="120" height="60" as="geometry" />
        </mxCell>
        <mxCell id="49SuMXLKN1Yx0tCa4ZDj-101" value="" style="edgeStyle=orthogonalEdgeStyle;rounded=0;orthogonalLoop=1;jettySize=auto;html=1;" edge="1" parent="1" source="49SuMXLKN1Yx0tCa4ZDj-97" target="49SuMXLKN1Yx0tCa4ZDj-100">
          <mxGeometry relative="1" as="geometry" />
        </mxCell>
        <mxCell id="49SuMXLKN1Yx0tCa4ZDj-97" value="Получить наличные средства" style="whiteSpace=wrap;html=1;rounded=0;" vertex="1" parent="1">
          <mxGeometry x="180" y="3550" width="120" height="60" as="geometry" />
        </mxCell>
        <mxCell id="49SuMXLKN1Yx0tCa4ZDj-103" value="" style="edgeStyle=orthogonalEdgeStyle;rounded=0;orthogonalLoop=1;jettySize=auto;html=1;" edge="1" parent="1" source="49SuMXLKN1Yx0tCa4ZDj-100" target="49SuMXLKN1Yx0tCa4ZDj-102">
          <mxGeometry relative="1" as="geometry" />
        </mxCell>
        <mxCell id="49SuMXLKN1Yx0tCa4ZDj-100" value="Внести данные в систему" style="whiteSpace=wrap;html=1;rounded=0;" vertex="1" parent="1">
          <mxGeometry x="180" y="3630" width="120" height="60" as="geometry" />
        </mxCell>
        <mxCell id="49SuMXLKN1Yx0tCa4ZDj-105" style="edgeStyle=orthogonalEdgeStyle;rounded=0;orthogonalLoop=1;jettySize=auto;html=1;" edge="1" parent="1" source="49SuMXLKN1Yx0tCa4ZDj-102" target="49SuMXLKN1Yx0tCa4ZDj-104">
          <mxGeometry relative="1" as="geometry">
            <Array as="points">
              <mxPoint x="240" y="3780" />
              <mxPoint x="399" y="3780" />
            </Array>
          </mxGeometry>
        </mxCell>
        <mxCell id="49SuMXLKN1Yx0tCa4ZDj-102" value="Выдать сдачу" style="whiteSpace=wrap;html=1;rounded=0;" vertex="1" parent="1">
          <mxGeometry x="180" y="3710" width="120" height="60" as="geometry" />
        </mxCell>
        <mxCell id="49SuMXLKN1Yx0tCa4ZDj-108" value="" style="edgeStyle=orthogonalEdgeStyle;rounded=0;orthogonalLoop=1;jettySize=auto;html=1;" edge="1" parent="1" source="49SuMXLKN1Yx0tCa4ZDj-104" target="49SuMXLKN1Yx0tCa4ZDj-107">
          <mxGeometry relative="1" as="geometry" />
        </mxCell>
        <mxCell id="49SuMXLKN1Yx0tCa4ZDj-104" value="Распечатать чек операции" style="rounded=0;whiteSpace=wrap;html=1;" vertex="1" parent="1">
          <mxGeometry x="339" y="3800" width="120" height="60" as="geometry" />
        </mxCell>
        <mxCell id="49SuMXLKN1Yx0tCa4ZDj-110" value="" style="edgeStyle=orthogonalEdgeStyle;rounded=0;orthogonalLoop=1;jettySize=auto;html=1;" edge="1" parent="1" source="49SuMXLKN1Yx0tCa4ZDj-107" target="49SuMXLKN1Yx0tCa4ZDj-109">
          <mxGeometry relative="1" as="geometry" />
        </mxCell>
        <mxCell id="49SuMXLKN1Yx0tCa4ZDj-107" value="Выдать чек пациенту" style="whiteSpace=wrap;html=1;rounded=0;" vertex="1" parent="1">
          <mxGeometry x="339" y="3884" width="120" height="60" as="geometry" />
        </mxCell>
        <mxCell id="49SuMXLKN1Yx0tCa4ZDj-112" value="" style="edgeStyle=orthogonalEdgeStyle;rounded=0;orthogonalLoop=1;jettySize=auto;html=1;" edge="1" parent="1" source="49SuMXLKN1Yx0tCa4ZDj-109" target="49SuMXLKN1Yx0tCa4ZDj-111">
          <mxGeometry relative="1" as="geometry" />
        </mxCell>
        <mxCell id="49SuMXLKN1Yx0tCa4ZDj-109" value="Работа с пациентом была завершена" style="whiteSpace=wrap;html=1;rounded=0;" vertex="1" parent="1">
          <mxGeometry x="339" y="3960" width="120" height="60" as="geometry" />
        </mxCell>
        <mxCell id="49SuMXLKN1Yx0tCa4ZDj-111" value="Конец" style="rounded=1;whiteSpace=wrap;html=1;" vertex="1" parent="1">
          <mxGeometry x="339" y="4051" width="120" height="40" as="geometry" />
        </mxCell>
      </root>
    </mxGraphModel>
  </diagram>
</mxfile>
